<svg xmlns="http://www.w3.org/2000/svg" width="1200" height="1500" viewBox="0 0 1200 1500">
<rect width="1200" height="1500" fill="white"/>
<rect x="30" y="30" width="1140" height="1440" fill="none" stroke="#111" stroke-width="2"/>
<text x="60" y="78" font-family="Arial" font-size="32" font-weight="700">BRIDGE PRINT C — BASE-C</text>
<text x="60" y="116" font-family="Arial" font-size="20">WLD 205 Day 9 Integrated Readiness Training Print</text>

<rect x="80" y="180" width="1040" height="720" fill="none" stroke="#111" stroke-width="2"/>
<text x="95" y="215" font-family="Arial" font-size="22" font-weight="700">TOP VIEW</text>
<rect x="220" y="330" width="760" height="360" fill="none" stroke="#111" stroke-width="4"/>
<rect x="585" y="270" width="30" height="480" fill="#eeeeee" stroke="#111" stroke-width="3"/>
<line x1="600" y1="250" x2="600" y2="770" stroke="#777" stroke-width="2" stroke-dasharray="14 8 3 8"/>
<text x="505" y="305" font-family="Arial" font-size="20">VERTICAL TAB</text>
<text x="496" y="800" font-family="Arial" font-size="20">CENTERLINE</text>

<line x1="220" y1="750" x2="980" y2="750" stroke="#111" stroke-width="2"/>
<line x1="220" y1="730" x2="220" y2="780" stroke="#111" stroke-width="2"/>
<line x1="980" y1="730" x2="980" y2="780" stroke="#111" stroke-width="2"/>
<text x="520" y="785" font-family="Arial" font-size="22">10.000 in</text>

<line x1="150" y1="330" x2="150" y2="690" stroke="#111" stroke-width="2"/>
<line x1="130" y1="330" x2="175" y2="330" stroke="#111" stroke-width="2"/>
<line x1="130" y1="690" x2="175" y2="690" stroke="#111" stroke-width="2"/>
<text x="92" y="525" font-family="Arial" font-size="22" transform="rotate(-90 92 525)">6.000 in</text>

<line x1="220" y1="260" x2="600" y2="260" stroke="#111" stroke-width="2"/>
<line x1="220" y1="240" x2="220" y2="280" stroke="#111" stroke-width="2"/>
<line x1="600" y1="240" x2="600" y2="280" stroke="#111" stroke-width="2"/>
<text x="365" y="248" font-family="Arial" font-size="21">5.000 ± 0.030 in</text>

<text x="95" y="950" font-family="Arial" font-size="21" font-weight="700">GENERAL NOTES</text>
<text x="95" y="990" font-family="Arial" font-size="20">1. Units: inches.</text>
<text x="95" y="1030" font-family="Arial" font-size="20">2. Base plate: 10.000 × 6.000 in.</text>
<text x="95" y="1070" font-family="Arial" font-size="20">3. Vertical tab nominal center: 5.000 in from left edge.</text>
<text x="95" y="1110" font-family="Arial" font-size="20">4. Tab center-location tolerance: ±0.030 in.</text>
<text x="95" y="1150" font-family="Arial" font-size="20">5. Material: carbon steel. Exact grade per instructor-issued material record.</text>
<text x="95" y="1190" font-family="Arial" font-size="20">6. WELD PER APPROVED WPS/SWPS.</text>
<text x="95" y="1230" font-family="Arial" font-size="20">7. Do not infer missing procedure values or exact material composition from this print.</text>

<rect x="760" y="1270" width="360" height="150" fill="none" stroke="#111" stroke-width="2"/>
<text x="780" y="1305" font-family="Arial" font-size="18" font-weight="700">TITLE BLOCK</text>
<text x="780" y="1337" font-family="Arial" font-size="17">Part: BASE-C</text>
<text x="780" y="1367" font-family="Arial" font-size="17">Scale: NTS</text>
<text x="780" y="1397" font-family="Arial" font-size="17">Training Print · WLD 205 Day 9</text>
</svg>