<svg xmlns="http://www.w3.org/2000/svg" width="1200" height="1360" viewBox="0 0 1200 1360">
<rect width="1200" height="1360" fill="white"/>
<rect x="20" y="20" width="1160" height="1320" fill="none" stroke="#222" stroke-width="2"/>
<text x="55" y="70" font-family="Arial" font-size="34" font-weight="700">WLD 205 DAY 3 — BLUEPRINT RECOVERY I</text>
<text x="55" y="108" font-family="Arial" font-size="21">Lines, Views, Dimensions + Notes</text>
<rect x="50" y="150" width="1100" height="230" rx="10" fill="#f7f7f7" stroke="#555"/><text x="72" y="188" font-family="Arial" font-size="24" font-weight="700">Professional Read Sequence</text><text x="85" y="225" font-family="Arial" font-size="22">TITLE / VIEW → NOTES → DIMENSIONS → SYMBOLS → QUESTIONS</text>
<text x="85" y="269" font-family="Arial" font-size="22">Line functions: object/visible • hidden • center • dimension • extension</text><rect x="50" y="405" width="1100" height="650" rx="10" fill="#f7f7f7" stroke="#555"/><text x="72" y="443" font-family="Arial" font-size="24" font-weight="700">Bridge Print A — FRAME-A</text><rect x="180" y="540" width="720" height="360" fill="none" stroke="#111" stroke-width="5"/><line x1="180" y1="720" x2="900" y2="720" stroke="#111" stroke-width="4"/><text x="470" y="520" font-family="Arial" font-size="22">12.000 in</text><text x="105" y="730" font-family="Arial" font-size="22" transform="rotate(-90 105 730)">8.000 in</text><text x="920" y="725" font-family="Arial" font-size="20">4.000 in spacing</text><text x="170" y="955" font-family="Arial" font-size="20">NOTE: ALL DIMENSIONS IN INCHES</text>
<text x="170" y="989" font-family="Arial" font-size="20">MATERIAL: 1 × 1 square tube</text>
<text x="170" y="1023" font-family="Arial" font-size="20">Welding parameters: use the APPROVED WPS/SWPS.</text><rect x="50" y="1080" width="1100" height="220" rx="10" fill="#f7f7f7" stroke="#555"/><text x="72" y="1118" font-family="Arial" font-size="24" font-weight="700">Math Connection</text><text x="85" y="1155" font-family="Arial" font-size="22">Outer-frame stock only: two 12-in horizontals + two 8-in verticals.</text>
<text x="85" y="1197" font-family="Arial" font-size="22">Actual allowance/kerf follows project/shop procedure.</text>
</svg>